<svg xmlns="http://www.w3.org/2000/svg" xmlns:xlink="http://www.w3.org/1999/xlink" width="140" height="366" viewBox="0 0 140 366"><svg width="44" height="35" viewBox="-10 -10 44 35"><title></title><path d="M23.72 3.984a.919.919 0 0 0 0-1.32L21.25.272a.962.962 0 0 0-1.34 0L12 7.972 4.092.271a.962.962 0 0 0-1.34 0L.278 2.664a.919.919 0 0 0 0 1.32l11.05 10.744a.962.962 0 0 0 1.341 0L23.72 3.984z" fill="#060C16" fill-rule="evenodd" fill-opacity=".65"/></svg><svg width="44" height="35" viewBox="-10 -10 44 35" y="35"><title></title><path d="M23.72 3.984a.919.919 0 0 0 0-1.32L21.25.272a.962.962 0 0 0-1.34 0L12 7.972 4.092.271a.962.962 0 0 0-1.34 0L.278 2.664a.919.919 0 0 0 0 1.32l11.05 10.744a.962.962 0 0 0 1.341 0L23.72 3.984z" fill="#FFF" fill-rule="evenodd" fill-opacity=".5"/></svg><svg width="33" height="30" viewBox="-10 -10 33 30" y="70"><title></title><path d="M13 1.953a.82.82 0 0 0-.235-.573L11.625.236a.812.812 0 0 0-1.141 0l-5.502 5.53-2.466-2.483a.812.812 0 0 0-1.14 0L.234 4.428a.818.818 0 0 0 0 1.144l4.177 4.192a.812.812 0 0 0 1.14 0l7.213-7.239A.818.818 0 0 0 13 1.953z" fill="#82CD5C" fill-rule="evenodd"/></svg><svg width="44" height="44" viewBox="-10 -10 44 44" y="100"><title>ion-close-round - Ionicons</title><path d="M23.375 20.188c.417.458.625 1 .625 1.625s-.208 1.145-.625 1.562c-.417.417-.937.625-1.563.625a2.336 2.336 0 0 1-1.625-.625L12 15.187l-8.188 8.188c-.458.417-.979.625-1.562.625-.583 0-1.104-.208-1.563-.625A2.024 2.024 0 0 1 0 21.812c0-.625.23-1.166.688-1.625L8.812 12 .688 3.812C.228 3.354 0 2.813 0 2.188 0 1.562.23 1.042.688.625 1.145.208 1.667 0 2.25 0c.583 0 1.104.208 1.563.625L12 8.813 20.188.624c.458-.417 1-.625 1.625-.625s1.145.208 1.562.625c.417.417.625.937.625 1.563 0 .625-.208 1.166-.625 1.624L15.187 12l8.188 8.188z" fill="#FFF" fill-rule="evenodd"/></svg><svg width="140" height="140" viewBox="-10 -10 140 140" y="144"><title>ion-person - Ionicons</title><path d="M120 120H0c0-5.417.208-9.583.625-12.5.833-4.167 9.27-9.27 25.313-15.313 2.5-.833 5.52-1.874 9.062-3.124 4.792-1.667 7.604-2.97 8.438-3.907.833-.937 1.25-3.698 1.25-8.281V75c0-2.5-.938-4.948-2.813-7.344C40 65.26 38.542 61.042 37.5 55c-.417-2.083-1.042-3.75-1.875-5s-1.667-3.75-2.5-7.5c-.625-1.875-.677-3.646-.156-5.313.52-1.666.781-2.708.781-3.124A1437.03 1437.03 0 0 1 32.5 23.75c-.417-4.792 1.667-9.948 6.25-15.469C43.333 2.761 50.417 0 60 0s16.667 2.76 21.25 8.281c4.583 5.521 6.667 10.677 6.25 15.469-.417 3.542-.833 6.98-1.25 10.313 0 .416.26 1.458.781 3.124.521 1.667.469 3.438-.156 5.313-.833 3.75-1.667 6.25-2.5 7.5s-1.458 2.917-1.875 5c-1.042 6.042-2.5 10.26-4.375 12.656C76.25 70.052 75.312 72.5 75.312 75c0 6.25.625 9.792 1.876 10.625.416.417 5.52 2.396 15.312 5.938.417.208.937.416 1.563.624 16.041 6.042 24.479 11.146 25.312 15.313L120 120z" fill="#060C16" fill-rule="evenodd" fill-opacity=".04"/></svg><svg width="41" height="41" viewBox="-10 -10 41 41" y="284"><title>Artboard</title><path d="M20.703 10.4c.396-.22.396-.58 0-.8L3.716.09C3.32-.129 3 .065 3 .516v18.968c0 .451.32.645.716.426l16.987-9.51z" fill="#060C16" fill-rule="evenodd" fill-opacity=".5"/></svg><svg width="41" height="41" viewBox="-10 -10 41 41" y="325"><title>Artboard</title><path d="M20.835 10.4c.4-.22.4-.58 0-.8L3.722.09C3.322-.129 3 .065 3 .516v18.968c0 .451.322.645.722.426l17.113-9.51z" fill="#FFF" fill-rule="evenodd"/></svg></svg>